- 
http://www.Speed.Cd 
       
http://www.Speed.Cd      fast  and The Hottest Private Tracker on the net

(((--Registration will be open on june every weekend--)))

Please Seed back to make the speed Faster!!!

------------------nfo--------------------------
-








































          
          
              
              
                    
                    
                    
                    

A.Bridge.Too.Far.1977.BRRip.Xvid.AC3-SiC

Poster:
[img]http://leetleech.org/images/13025512473036664758.jpg[/img]

IMDB Link:
http://www.imdb.com/title/tt0075784/

Description:
An historic telling of the failed attempt to capture several bridges to Germany
in World War II in a campaign called Operation Market-Garden. 

MediaInfo:
General
Complete name                    : A.Bridge.Too.Far.1977.BRRip.Xvid.AC3-SiC.avi
Format                           : AVI
Format/Info                      : Audio Video Interleave
File size                        : 1.79 GiB
Duration                         : 2h 56mn
Overall bit rate                 : 1 454 Kbps

Video
ID                               : 0
Format                           : MPEG-4 Visual
Format profile                   : Advanced Simple@L5
Format settings, BVOP            : Yes
Format settings, QPel            : No
Format settings, GMC             : No warppoints
Format settings, Matrix          : Default (H.263)
Muxing mode                      : Packed bitstream
Codec ID                         : XVID
Codec ID/Hint                    : XviD
Duration                         : 2h 56mn
Bit rate                         : 1 062 Kbps
Width                            : 720 pixels
Height                           : 304 pixels
Display aspect ratio             : 2.35:1
Frame rate                       : 23.976 fps
Resolution                       : 8 bits
Colorimetry                      : 4:2:0
Scan type                        : Progressive
Bits/(Pixel*Frame)               : 0.202
Stream size                      : 1.31 GiB (73%)
Writing library                  : XviD 64

Audio
ID                               : 1
Format                           : AC-3
Format/Info                      : Audio Coding 3
Format_Settings_ModeExtension    : CM (complete main)
Codec ID                         : 2000
Duration                         : 2h 56mn
Bit rate mode                    : Constant
Bit rate                         : 384 Kbps
Channel(s)                       : 6 channels
Channel positions                : Front: L C R, Side: L R, LFE
Sampling rate                    : 48.0 KHz
Stream size                      : 484 MiB (26%)
Alignment                        : Aligned on interleaves
Interleave, duration             : 64 ms (1.53 video frames)
Interleave, preload duration     : 192 ms
Title                            : 6ch English

Screenshots:
[img]http://leetleech.org/images/15308688664630896059.png[/img]
[img]http://leetleech.org/images/35847064553557863198.png[/img]
[img]http://leetleech.org/images/40365587615179013717.png[/img]
[img]http://leetleech.org/images/46810146675346092212.png[/img]
[img]http://leetleech.org/images/67328145024110898913.png[/img]

Note :   N/A 

Source : BluRay-CtrlHD Thanks!

Encoder: Bezauk

Enjoy!

Respects to CaptainHomey, Cyanide, CM8, Rx, THC, ELEKTRI4KA, 
Killerhz, PA, YeFsTe, BoxSlots, MrRep and everyone in the struggle...